<svg xmlns="http://www.w3.org/2000/svg" width="1365" height="768" viewBox="0 0 1365 768">
<g>
<path d="M 501.00 520.96 L 496.50 524.91 L 482.75 524.96 L 469.00 525.00 L 469.00 386.63 L 473.50 381.77 L 470.00 382.63 C468.08,383.11 461.10,383.50 454.50,383.50 C443.44,383.50 442.03,383.28 436.50,380.69 C433.20,379.15 429.29,376.73 427.81,375.31 L 425.12 372.74 L 419.83 377.37 L 414.53 382.00 L 357.00 382.00 L 357.07 244.50 L 379.50 225.02 L 436.50 225.50 L 437.50 243.10 L 446.14 235.68 C457.85,225.61 461.00,224.50 478.00,224.50 C489.98,224.50 492.08,224.76 496.62,226.82 C499.43,228.09 503.22,230.67 505.04,232.54 L 508.34 235.95 L 514.57 230.47 L 520.81 225.00 L 539.65 225.03 C571.58,225.08 581.19,227.55 587.75,237.36 C589.54,240.04 591.00,242.74 590.99,243.36 C590.99,243.99 589.64,242.16 588.00,239.30 C584.55,233.28 579.29,229.78 571.20,228.10 C568.26,227.49 555.89,227.00 543.44,227.00 L 520.99 227.00 L 521.24 295.25 L 521.50 363.50 L 536.00 364.00 C546.14,364.35 550.05,364.80 549.00,365.50 C547.92,366.22 549.86,366.66 556.00,367.06 C563.66,367.57 563.13,367.65 550.67,367.81 L 536.84 368.00 L 537.37 370.75 C537.66,372.26 538.20,389.87 538.57,409.87 C539.13,439.88 539.01,446.17 537.92,445.81 C536.98,445.49 535.21,435.29 531.86,410.93 C529.26,391.99 526.85,374.59 526.50,372.25 L 525.88 368.00 L 490.99 368.00 L 491.24 436.25 L 491.50 504.50 L 517.50 504.50 L 517.00 475.50 C516.27,432.93 516.34,426.72 517.60,426.30 C518.33,426.06 519.83,434.20 522.01,450.22 C523.83,463.57 526.26,481.25 527.41,489.50 L 529.50 504.50 L 563.50 504.50 L 563.76 448.04 C563.92,412.41 564.38,391.22 565.01,390.59 C565.55,390.05 566.00,388.86 566.00,387.95 C566.00,386.62 571.45,381.29 581.34,372.93 C581.81,372.53 581.44,371.07 580.52,369.67 C576.94,364.21 576.02,357.20 576.01,335.16 L 576.00 313.81 L 571.00 318.16 C563.18,324.95 556.99,329.00 554.41,329.00 L 552.05 329.00 L 551.75 345.75 C551.49,360.01 551.41,358.90 551.22,338.31 C551.01,315.23 550.86,313.56 548.00,301.84 C546.35,295.08 545.00,288.94 545.00,288.19 C545.00,285.46 547.34,287.71 548.49,291.55 C551.09,300.28 554.55,305.22 560.02,308.01 C568.03,312.10 577.99,311.41 584.00,306.35 C589.84,301.43 592.30,293.74 593.42,276.92 C593.93,269.25 592.82,250.69 591.63,246.94 C590.98,244.91 608.20,230.28 615.00,227.08 C620.06,224.70 621.57,224.50 634.00,224.50 C649.76,224.50 654.77,225.91 661.67,232.26 L 665.95 236.21 L 672.23 230.74 L 678.50 225.26 L 697.50 225.08 C725.43,224.82 737.58,226.63 745.17,232.17 C746.59,233.21 747.55,232.75 751.40,229.20 L 755.96 225.00 L 789.42 225.00 C810.65,225.00 823.11,225.37 823.50,226.00 C823.91,226.66 812.51,227.00 790.06,227.00 L 756.00 227.00 L 756.00 254.00 L 775.00 254.00 L 775.00 364.00 L 789.62 364.00 C802.51,364.00 804.10,364.18 803.00,365.50 C801.97,366.74 802.08,367.00 803.63,367.00 C805.44,367.00 805.49,365.15 805.22,310.50 L 804.94 254.00 L 824.00 254.00 L 824.00 241.41 C824.00,240.87 824.00,240.36 824.00,239.85 C823.99,232.92 823.98,229.23 825.82,227.27 C827.90,225.05 832.35,225.05 841.82,225.04 C842.43,225.04 843.05,225.03 843.70,225.03 C856.47,225.01 859.04,225.25 859.78,226.56 C860.57,227.98 860.77,227.98 861.95,226.56 C863.02,225.27 865.89,225.00 878.56,225.00 C887.70,225.00 894.13,225.40 894.50,226.00 C894.90,226.65 889.67,227.00 879.55,227.00 L 863.98 227.00 L 864.56 230.75 C864.87,232.81 869.07,263.52 873.88,299.00 L 882.62 363.50 L 900.99 363.77 C911.09,363.92 919.67,363.70 920.06,363.27 C920.45,362.85 924.76,332.86 929.64,296.64 C934.51,260.41 938.65,231.51 938.83,232.41 C939.08,233.66 940.33,232.99 944.21,229.50 L 949.26 224.96 L 987.50 225.50 L 987.66 228.50 C987.77,230.51 987.66,230.76 987.34,229.25 C986.86,227.01 986.75,227.00 967.93,227.00 C957.52,227.00 949.00,227.21 949.00,227.46 C949.00,227.71 944.72,257.51 939.50,293.68 C934.28,329.86 930.00,360.48 930.00,361.73 C930.00,363.99 930.07,364.00 944.88,364.00 L 959.77 364.00 L 960.37 356.75 C960.70,352.76 961.26,345.79 961.61,341.25 L 962.26 333.00 L 973.82 333.00 L 974.42 341.75 C974.75,346.56 975.35,353.42 975.76,357.00 L 976.50 363.50 L 1006.78 363.50 L 1002.67 367.00 C1000.42,368.92 995.63,373.08 992.04,376.23 L 985.50 381.97 L 969.30 381.98 L 953.10 382.00 L 952.50 370.01 L 945.62 375.96 C938.87,381.80 938.62,381.92 932.12,382.21 L 925.50 382.50 L 923.50 368.50 L 885.50 367.96 L 875.75 435.69 C870.39,472.93 866.38,503.78 866.83,504.23 C867.29,504.69 874.15,504.93 882.08,504.78 L 896.50 504.50 L 898.50 474.50 L 904.00 474.86 C907.03,475.05 909.77,475.38 910.10,475.57 C910.43,475.77 911.02,482.14 911.41,489.72 C911.80,497.30 912.49,503.87 912.94,504.32 C913.38,504.78 920.56,505.00 928.88,504.82 C937.20,504.65 943.89,504.77 943.75,505.11 C943.61,505.45 938.55,510.06 932.50,515.36 L 921.50 525.00 L 889.50 524.50 L 888.50 512.86 L 881.50 518.93 L 874.50 524.99 L 858.75 525.00 C844.76,525.00 843.00,524.82 843.00,523.35 C843.00,521.81 842.87,521.81 841.17,523.35 C839.63,524.74 836.85,525.00 823.67,525.00 L 808.00 525.00 L 808.00 522.50 C808.00,521.12 807.63,520.00 807.17,520.00 C806.72,520.00 805.29,521.12 804.00,522.50 L 801.65 525.00 L 744.00 525.00 L 744.00 515.50 C744.00,510.27 743.73,506.00 743.40,506.00 C743.07,506.00 737.93,510.28 731.98,515.52 L 721.15 525.04 L 682.53 524.50 L 681.86 520.50 C681.50,518.30 677.24,487.37 672.41,451.77 L 663.62 387.03 L 665.99 384.52 L 668.35 382.00 L 656.07 382.00 L 655.50 362.20 L 647.50 369.24 C639.18,376.55 631.47,382.00 629.42,382.00 C628.71,382.00 627.89,379.31 627.37,375.25 L 626.50 368.50 L 588.52 368.50 L 578.80 435.50 C573.46,472.35 569.28,503.07 569.52,503.78 C569.85,504.75 573.44,504.99 584.73,504.78 L 599.50 504.50 L 600.50 489.50 C601.39,476.21 601.70,474.51 603.25,474.58 C604.21,474.63 606.96,474.74 609.36,474.83 L 613.72 475.00 L 614.44 489.23 C614.84,497.05 615.38,503.80 615.64,504.23 C616.48,505.59 644.44,505.15 645.90,503.75 C646.94,502.74 647.13,502.83 646.85,504.18 C646.66,505.11 641.55,510.16 635.50,515.42 L 624.50 524.98 L 592.50 524.50 L 591.50 513.00 L 584.57 519.00 L 577.64 525.00 L 561.82 525.00 C547.77,525.00 546.00,524.82 546.00,523.35 C546.00,521.81 545.87,521.81 544.17,523.35 C542.62,524.75 539.72,525.00 524.73,525.00 L 507.12 525.00 L 506.31 521.00 L 505.50 517.00 ZM 625.53 364.89 C633.78,366.09 634.59,366.09 642.33,364.97 C656.15,362.98 663.61,357.60 668.13,346.38 L 670.50 340.50 L 670.50 249.50 L 668.12 243.59 C665.01,235.89 658.97,229.84 651.91,227.38 C647.72,225.93 643.68,225.50 634.00,225.51 C622.06,225.52 621.20,225.66 614.82,228.67 C607.26,232.24 603.27,236.82 600.31,245.32 C598.67,250.02 598.50,254.69 598.50,295.50 C598.50,340.43 598.50,340.51 600.85,346.33 C602.15,349.54 604.54,353.68 606.17,355.54 C610.02,359.93 618.03,363.79 625.53,364.89 ZM 679.00 226.83 L 679.00 364.00 L 709.00 364.00 L 709.00 302.88 L 712.65 303.19 C715.28,303.41 716.89,304.29 718.40,306.32 C720.37,308.97 720.53,310.73 721.01,335.32 C721.29,349.72 721.88,362.06 722.32,362.75 C722.90,363.66 727.22,364.00 738.19,364.00 L 753.26 364.00 L 752.59 358.10 C752.22,354.86 751.92,334.37 751.91,312.57 C751.91,288.17 751.54,273.16 750.97,273.52 C750.40,273.87 750.32,272.79 750.77,270.80 C751.17,268.98 751.50,262.10 751.49,255.50 C751.49,245.01 751.21,242.97 749.25,239.31 C746.80,234.71 742.41,231.00 737.00,228.95 C734.52,228.02 725.55,227.51 706.25,227.23 ZM 469.72 364.94 C472.90,365.43 478.20,365.61 481.50,365.35 C505.56,363.43 515.15,350.50 513.77,321.88 C512.90,303.90 508.66,296.78 491.68,284.82 C474.51,272.73 471.00,268.53 471.00,260.03 C471.00,253.90 475.20,250.60 480.45,252.62 C483.26,253.70 484.41,257.25 484.96,266.50 L 485.50 275.50 L 499.86 275.78 L 514.23 276.06 L 513.75 262.28 C513.20,246.56 511.82,241.49 506.34,235.08 C499.84,227.49 489.51,224.33 474.22,225.25 C459.50,226.14 449.96,231.28 445.01,240.97 C441.95,246.97 440.64,257.69 441.94,266.07 C443.98,279.21 449.61,286.48 466.50,297.76 C481.25,307.62 484.01,311.79 483.99,324.22 C483.96,334.90 480.98,339.43 475.30,337.44 C471.03,335.94 469.71,330.76 470.29,317.75 L 470.76 307.00 L 442.18 307.00 L 441.44 315.75 C440.52,326.67 442.12,341.07 444.97,347.72 C448.98,357.04 457.71,363.12 469.72,364.94 ZM 705.47 503.95 C706.22,505.16 742.97,505.45 743.05,504.25 C743.08,503.84 747.24,473.12 752.31,436.00 L 761.53 368.50 L 746.62 368.22 C738.43,368.07 731.57,368.10 731.38,368.28 C731.20,368.47 729.87,387.49 728.43,410.56 C727.00,433.63 725.62,453.14 725.38,453.92 C725.05,454.95 724.64,455.04 723.83,454.23 C723.03,453.43 717.63,385.58 717.03,368.75 C717.01,368.34 710.25,368.00 702.00,368.00 C688.24,368.00 687.00,368.15 687.00,369.79 C687.00,373.35 704.84,502.93 705.47,503.95 ZM 767.00 368.00 L 767.00 505.03 L 794.75 504.77 L 822.50 504.50 L 822.78 491.25 L 823.06 478.00 L 815.28 478.00 L 807.50 478.00 L 807.85 468.88 C808.08,463.18 807.84,459.90 807.22,460.13 C806.68,460.33 804.41,462.16 802.18,464.20 C798.69,467.37 798.06,468.58 797.74,472.70 C797.53,475.34 797.28,470.86 797.18,462.75 L 797.00 448.00 L 820.00 448.00 L 820.00 423.00 L 807.41 423.00 L 807.83 416.35 L 808.25 409.71 L 804.78 412.35 C802.87,413.81 800.59,415.00 799.72,415.00 C798.61,415.00 798.00,416.15 797.73,418.75 C797.51,420.81 797.26,416.54 797.17,409.25 L 797.00 396.00 L 806.88 396.00 C812.31,396.00 818.16,395.72 819.88,395.38 L 823.00 394.75 L 823.00 368.00 ZM 380.00 227.00 L 380.00 364.03 L 407.75 363.77 L 435.50 363.50 L 435.78 349.75 L 436.06 336.00 L 410.00 336.00 L 410.00 306.00 L 433.00 306.00 L 433.00 282.07 L 410.50 281.50 L 410.22 267.75 L 409.94 254.00 L 436.00 254.00 L 436.00 227.00 ZM 830.69 504.36 C831.07,504.74 837.94,504.93 845.94,504.78 L 860.50 504.50 L 861.00 447.50 C861.28,416.15 861.90,389.60 862.40,388.50 C862.89,387.40 864.24,385.43 865.40,384.12 L 867.50 381.74 L 864.25 382.20 L 861.00 382.65 L 861.00 368.00 L 830.00 368.00 L 830.00 435.83 C830.00,473.14 830.31,503.98 830.69,504.36 ZM 829.67 363.33 C830.03,363.70 836.78,364.00 844.67,364.00 L 859.00 364.00 L 859.00 227.00 L 829.00 227.00 L 829.00 294.83 C829.00,332.14 829.30,362.97 829.67,363.33 ZM 638.60 335.90 C637.55,337.05 635.70,338.00 634.50,338.00 C633.30,338.00 631.45,337.05 630.40,335.90 C628.60,333.90 628.50,331.74 628.50,295.00 C628.50,258.26 628.60,256.10 630.40,254.10 C631.45,252.95 633.30,252.00 634.50,252.00 C635.70,252.00 637.55,252.95 638.60,254.10 C640.40,256.10 640.50,258.26 640.50,295.00 C640.50,331.74 640.40,333.90 638.60,335.90 ZM 903.30 307.75 C902.92,311.23 902.27,313.00 901.36,313.00 C900.57,313.00 900.00,311.94 900.00,310.48 C900.00,309.09 898.86,290.80 897.46,269.84 C896.07,248.87 895.13,231.22 895.38,230.61 C895.64,230.00 895.88,231.00 895.92,232.83 L 896.00 236.16 L 902.25 230.57 L 908.50 224.98 L 923.99 225.24 C938.63,225.49 939.49,225.61 939.72,227.50 C939.85,228.60 939.71,228.94 939.40,228.25 C938.98,227.33 934.83,227.00 923.65,227.00 L 908.46 227.00 L 906.17 264.75 C904.91,285.51 903.62,304.86 903.30,307.75 ZM 563.64 279.31 C562.28,282.57 561.70,283.00 558.57,283.00 C552.95,283.00 551.68,280.07 551.18,265.87 L 550.75 254.00 L 555.72 254.00 C563.04,254.00 564.41,255.94 564.84,266.91 C565.09,273.15 564.75,276.67 563.64,279.31 ZM 722.41 272.75 C721.17,274.67 720.08,275.00 714.98,275.00 L 709.00 275.00 L 709.00 254.00 L 714.50 254.00 C718.61,254.00 720.49,254.49 721.94,255.94 C725.57,259.57 725.79,267.52 722.41,272.75 ZM 971.50 308.00 C970.71,309.28 965.31,309.31 964.53,308.04 C963.93,307.08 965.72,272.45 966.58,268.25 C966.83,267.01 967.63,266.00 968.34,266.00 C969.33,266.00 969.94,270.94 970.88,286.50 C971.56,297.78 971.84,307.46 971.50,308.00 ZM 611.28 449.25 C611.06,449.66 609.36,450.00 607.50,450.00 C605.64,450.00 603.94,449.66 603.72,449.25 C603.51,448.84 603.90,440.40 604.59,430.50 C605.29,420.60 605.89,411.26 605.93,409.75 C605.97,408.01 606.55,407.00 607.50,407.00 C608.45,407.00 609.03,408.01 609.07,409.75 C609.11,411.26 609.71,420.60 610.41,430.50 C611.10,440.40 611.49,448.84 611.28,449.25 ZM 908.11 449.56 C907.36,450.31 901.14,450.04 900.70,449.25 C900.47,448.84 900.87,440.17 901.58,430.00 C902.29,419.83 902.90,410.49 902.94,409.25 C903.04,405.53 905.99,406.47 906.07,410.25 C906.11,412.04 906.69,421.52 907.35,431.31 C908.00,441.11 908.35,449.32 908.11,449.56 ZM 411.00 325.14 L 411.00 335.00 L 419.00 335.00 L 419.00 330.75 C419.00,326.72 419.43,326.10 427.19,318.83 C434.26,312.19 435.19,310.94 434.06,309.58 C433.34,308.71 432.25,308.01 431.63,308.01 C431.01,308.02 426.11,311.88 420.75,316.59 ZM 746.76 296.75 C748.75,299.77 747.90,299.59 744.92,296.37 C741.65,292.82 737.53,291.21 729.63,290.40 C725.03,289.93 723.00,289.31 723.00,288.36 C723.00,287.40 724.43,287.00 727.87,287.00 C730.56,287.00 734.72,286.34 737.12,285.52 L 741.50 284.05 L 734.95 289.30 L 740.11 291.90 C742.95,293.33 745.95,295.51 746.76,296.75 ZM 411.00 276.50 C411.00,279.92 411.10,280.00 415.00,280.00 L 419.00 280.00 L 419.00 268.65 L 416.69 270.83 C415.41,272.02 413.61,273.00 412.69,273.00 C411.43,273.00 411.00,273.88 411.00,276.50 ZM 495.50 365.00 C493.74,366.94 493.75,367.00 495.85,367.00 C497.33,367.00 498.00,366.38 498.00,365.00 C498.00,363.90 497.84,363.00 497.65,363.00 C497.47,363.00 496.50,363.90 495.50,365.00 Z" fill="rgb(0,0,1)"/>
<path d="M 0.00 0.00 L 1365.00 0.00 L 1365.00 768.00 L 0.00 768.00 ZM 29.25 743.34 C29.94,743.62 324.35,743.77 683.50,743.67 L 1336.50 743.50 L 1336.75 384.25 L 1337.00 25.00 L 28.00 25.00 L 28.00 383.92 C28.00,670.11 28.25,742.94 29.25,743.34 ZM 501.00 520.96 L 505.50 517.00 L 506.31 521.00 L 507.12 525.00 L 524.73 525.00 C539.72,525.00 542.62,524.75 544.17,523.35 C545.87,521.81 546.00,521.81 546.00,523.35 C546.00,524.82 547.77,525.00 561.82,525.00 L 577.64 525.00 L 584.57 519.00 L 591.50 513.00 L 592.50 524.50 L 624.50 524.98 L 635.50 515.42 C641.55,510.16 646.66,505.11 646.85,504.18 C647.13,502.83 646.94,502.74 645.90,503.75 C645.79,503.85 645.55,503.95 645.19,504.04 C645.42,503.88 645.56,503.70 645.64,503.49 C646.09,502.32 633.52,412.99 628.34,380.19 C628.69,381.34 629.07,382.00 629.42,382.00 C631.47,382.00 639.18,376.55 647.50,369.24 L 655.50 362.20 L 656.07 382.00 L 668.35 382.00 L 665.99 384.52 L 663.62 387.03 L 672.41 451.77 C676.57,482.38 680.29,509.54 681.49,517.95 C681.41,517.81 681.33,517.71 681.25,517.65 C680.84,517.40 680.62,567.32 680.78,628.60 L 681.05 740.00 L 32.00 740.00 L 32.00 607.00 L 201.00 607.00 L 201.00 467.35 L 207.95 462.60 C216.96,456.45 231.39,441.23 236.57,432.42 C238.81,428.62 242.03,422.12 243.72,418.00 C260.43,377.28 245.08,329.58 207.25,304.69 L 201.00 300.58 L 201.00 161.00 L 32.00 161.00 L 32.00 28.00 L 681.00 28.00 L 681.00 127.00 C681.00,202.72 681.13,221.56 682.03,225.23 L 678.50 225.26 L 672.23 230.74 L 665.95 236.21 L 661.67 232.26 C654.77,225.91 649.76,224.50 634.00,224.50 C621.57,224.50 620.06,224.70 615.00,227.08 C608.20,230.28 590.98,244.91 591.63,246.94 C592.13,248.52 592.61,252.73 592.97,257.64 C592.19,249.51 591.37,246.18 588.92,241.21 C588.30,239.94 587.67,238.77 587.01,237.71 C587.35,238.22 587.68,238.75 588.00,239.30 C589.64,242.16 590.99,243.99 590.99,243.36 C591.00,242.74 589.54,240.04 587.75,237.36 C581.19,227.55 571.58,225.08 539.65,225.03 L 520.81 225.00 L 514.57 230.47 L 508.34 235.95 L 505.04 232.54 C503.22,230.67 499.43,228.09 496.62,226.82 C492.08,224.76 489.98,224.50 478.00,224.50 C461.00,224.50 457.85,225.61 446.14,235.68 L 437.50 243.10 L 436.50 225.50 L 379.50 225.02 L 357.07 244.50 L 357.00 382.00 L 414.53 382.00 L 419.83 377.37 L 425.12 372.74 L 427.81 375.31 C429.29,376.73 433.20,379.15 436.50,380.69 C442.03,383.28 443.44,383.50 454.50,383.50 C461.10,383.50 468.08,383.11 470.00,382.63 L 473.50 381.77 L 469.00 386.63 L 469.00 525.00 L 482.75 524.96 L 496.50 524.91 ZM 682.91 524.51 L 721.15 525.04 L 731.98 515.52 C737.93,510.28 743.07,506.00 743.40,506.00 C743.73,506.00 744.00,510.27 744.00,515.50 L 744.00 525.00 L 801.65 525.00 L 804.00 522.50 C805.29,521.12 806.72,520.00 807.17,520.00 C807.63,520.00 808.00,521.12 808.00,522.50 L 808.00 525.00 L 823.67 525.00 C836.85,525.00 839.63,524.74 841.17,523.35 C842.87,521.81 843.00,521.81 843.00,523.35 C843.00,524.82 844.76,525.00 858.75,525.00 L 874.50 524.99 L 881.50 518.93 L 888.50 512.86 L 889.50 524.50 L 921.50 525.00 L 932.50 515.36 C938.55,510.06 943.61,505.45 943.75,505.11 C943.83,504.93 941.87,504.81 938.73,504.76 C941.38,504.56 942.37,504.19 942.60,503.59 C943.01,502.54 932.31,426.34 925.64,382.49 L 932.12 382.21 C938.62,381.92 938.87,381.80 945.62,375.96 L 952.50 370.01 L 953.10 382.00 L 969.30 381.98 L 985.50 381.97 L 992.04 376.23 C995.63,373.08 1000.42,368.92 1002.67,367.00 L 1006.78 363.50 L 1004.87 363.50 C1005.62,363.42 1006.08,363.32 1006.19,363.21 C1007.01,362.39 990.29,242.78 987.88,232.25 L 986.95 228.16 C987.16,228.44 987.24,228.80 987.34,229.25 C987.66,230.76 987.77,230.51 987.66,228.50 L 987.50 225.50 L 949.26 224.96 L 944.21 229.50 C940.33,232.99 939.08,233.66 938.83,232.41 C938.65,231.51 934.51,260.41 929.64,296.64 C929.46,297.97 929.28,299.30 929.10,300.62 L 929.45 298.00 C934.15,263.08 938.26,232.81 938.58,230.75 L 939.03 227.92 C939.22,228.02 939.34,228.13 939.40,228.25 C939.71,228.94 939.85,228.60 939.72,227.50 C939.49,225.61 938.63,225.49 923.99,225.24 L 908.50 224.98 L 902.25 230.57 L 896.00 236.16 L 895.92 232.83 C895.88,231.00 895.64,230.00 895.38,230.61 C895.13,231.22 896.07,248.87 897.46,269.84 C897.63,272.41 897.80,274.94 897.96,277.41 C897.81,275.15 897.66,272.84 897.50,270.50 C896.14,250.15 895.02,232.04 895.01,230.25 L 895.00 227.00 L 879.55 227.00 C889.67,227.00 894.90,226.65 894.50,226.00 C894.13,225.40 887.70,225.00 878.56,225.00 C865.89,225.00 863.02,225.27 861.95,226.56 C860.77,227.98 860.57,227.98 859.78,226.56 C859.04,225.25 856.47,225.01 843.70,225.03 C843.05,225.03 842.43,225.04 841.82,225.04 C832.35,225.05 827.90,225.05 825.82,227.27 C824.24,228.96 824.02,231.94 824.00,237.17 L 824.00 227.00 L 790.06 227.00 C812.51,227.00 823.91,226.66 823.50,226.00 C823.11,225.37 810.65,225.00 789.42,225.00 L 755.96 225.00 L 751.40 229.20 C747.55,232.75 746.59,233.21 745.17,232.17 C737.58,226.63 725.43,224.82 697.50,225.08 L 682.97 225.22 C683.87,221.53 684.00,202.66 684.00,127.00 L 684.00 28.00 L 1333.00 28.00 L 1333.00 161.00 L 1164.00 161.00 L 1164.00 300.72 L 1158.71 304.23 C1138.89,317.39 1125.07,335.69 1118.32,357.71 C1115.87,365.69 1115.62,368.02 1115.56,383.00 C1115.51,397.34 1115.80,400.53 1117.79,407.40 C1124.21,429.58 1137.73,448.67 1156.25,461.71 L 1164.00 467.17 L 1164.00 607.00 L 1333.00 607.00 L 1333.00 740.00 L 684.50 739.50 L 684.25 632.55 C684.08,563.25 683.64,525.24 683.00,524.60 C682.97,524.57 682.94,524.54 682.91,524.51 ZM 198.00 165.00 L 198.00 603.00 L 32.00 603.00 L 32.00 487.02 L 76.75 486.76 L 121.50 486.50 L 121.75 384.26 L 122.01 282.02 L 77.25 281.76 L 32.50 281.50 L 32.24 223.25 L 31.98 165.00 ZM 1333.00 487.00 L 1333.00 603.00 L 1168.00 603.00 L 1168.00 165.00 L 1333.00 165.00 L 1333.00 282.00 L 1243.00 282.00 L 1243.00 383.89 C1243.00,475.88 1243.15,485.85 1244.58,486.39 C1245.45,486.73 1265.70,487.00 1289.58,487.00 ZM 118.39 481.42 C117.85,482.83 113.08,483.00 74.89,483.00 L 32.00 483.00 L 32.00 285.00 L 74.89 285.00 C113.08,285.00 117.85,285.17 118.39,286.58 C119.19,288.65 119.19,479.35 118.39,481.42 ZM 1333.00 285.00 L 1333.00 483.00 L 1247.00 483.00 L 1247.00 285.00 ZM 208.64 457.64 C205.42,460.04 202.38,462.00 201.89,462.00 C201.38,462.00 201.00,428.91 201.00,384.00 C201.00,321.40 201.25,306.00 202.28,306.00 C204.74,306.00 219.93,318.98 225.94,326.20 C233.35,335.13 240.00,347.67 243.62,359.56 C246.07,367.59 246.34,370.03 246.34,383.50 C246.34,396.91 246.06,399.43 243.67,407.29 C240.80,416.69 235.64,427.69 230.68,435.00 C226.31,441.44 215.48,452.56 208.64,457.64 ZM 1164.00 384.00 C1164.00,426.90 1163.66,462.00 1163.25,462.00 C1162.84,461.99 1160.03,460.14 1157.00,457.89 C1138.82,444.32 1125.52,424.52 1120.34,403.33 C1117.87,393.21 1118.12,371.92 1120.83,361.80 C1124.91,346.56 1133.23,331.99 1144.32,320.65 C1149.56,315.29 1161.48,306.00 1163.11,306.00 C1163.62,306.00 1164.00,339.09 1164.00,384.00 ZM 531.01 363.83 C532.79,363.83 534.74,363.81 536.76,363.78 L 551.14 363.50 L 551.04 338.68 C550.94,314.82 550.83,313.44 548.00,301.84 C550.86,313.56 551.01,315.23 551.22,338.31 C551.41,358.90 551.49,360.01 551.75,345.75 L 552.05 329.00 L 554.41 329.00 C556.99,329.00 563.18,324.95 571.00,318.16 L 576.00 313.81 L 576.01 335.16 C576.02,357.20 576.94,364.21 580.52,369.67 C581.44,371.07 581.81,372.53 581.34,372.93 C571.45,381.29 566.00,386.62 566.00,387.95 C566.00,388.86 565.55,390.05 565.01,390.59 C564.38,391.22 563.92,412.41 563.76,448.04 L 563.50 504.50 L 563.76 436.25 L 564.01 368.00 L 536.84 368.00 L 550.67 367.81 C563.13,367.65 563.66,367.57 556.00,367.06 C549.86,366.66 547.92,366.22 549.00,365.50 C550.05,364.80 546.14,364.35 536.00,364.00 ZM 746.76 296.75 C745.95,295.51 742.95,293.33 740.11,291.90 L 734.95 289.30 L 741.50 284.05 L 737.12 285.52 C734.72,286.34 730.56,287.00 727.87,287.00 C724.80,287.00 723.33,287.32 723.05,288.07 C723.33,287.32 724.75,287.00 727.66,287.00 C730.23,287.00 734.77,286.23 737.77,285.28 C744.96,283.02 749.15,278.29 750.93,269.77 C750.88,270.20 750.82,270.55 750.77,270.80 C750.32,272.79 750.40,273.87 750.97,273.52 C751.54,273.16 751.91,288.17 751.91,312.57 C751.92,321.95 751.97,331.09 752.07,338.71 C751.90,332.94 751.72,326.78 751.59,322.00 C751.15,305.84 750.51,302.46 746.34,297.83 C748.11,299.55 748.39,299.22 746.76,296.75 ZM 411.00 325.14 L 420.75 316.59 C426.11,311.88 431.01,308.02 431.63,308.01 C432.25,308.01 433.34,308.71 434.06,309.58 C435.19,310.94 434.26,312.19 427.19,318.83 C419.43,326.10 419.00,326.72 419.00,330.75 L 419.00 335.00 L 411.00 335.00 ZM 797.38 470.92 C797.49,473.39 797.62,474.20 797.74,472.70 C798.06,468.58 798.69,467.37 802.18,464.20 C804.41,462.16 806.68,460.33 807.22,460.13 C807.84,459.90 808.08,463.18 807.85,468.88 L 807.51 477.72 L 797.50 477.50 ZM 797.39 417.31 C797.49,419.18 797.62,419.82 797.73,418.75 C798.00,416.15 798.61,415.00 799.72,415.00 C800.59,415.00 802.87,413.81 804.78,412.35 L 808.25 409.71 L 807.83 416.35 L 807.42 422.75 L 797.50 422.50 ZM 861.00 371.68 L 861.00 382.65 L 864.25 382.20 L 867.50 381.74 L 865.40 384.12 C864.24,385.43 862.89,387.40 862.40,388.50 C861.90,389.60 861.28,416.15 861.00,447.50 L 860.50 504.50 L 860.76 436.25 ZM 411.00 276.50 C411.00,273.88 411.43,273.00 412.69,273.00 C413.61,273.00 415.41,272.02 416.69,270.83 L 419.00 268.65 L 419.00 280.00 L 415.00 280.00 C411.10,280.00 411.00,279.92 411.00,276.50 ZM 805.00 363.52 L 805.00 266.75 L 805.22 310.50 C805.39,344.62 805.43,358.16 805.00,363.52 ZM 495.50 365.00 C496.50,363.90 497.47,363.00 497.65,363.00 C497.84,363.00 498.00,363.90 498.00,365.00 C498.00,366.38 497.33,367.00 495.85,367.00 C493.75,367.00 493.74,366.94 495.50,365.00 ZM 803.00 365.50 C804.09,364.19 802.54,364.00 790.00,364.00 L 804.96 364.00 C804.69,366.77 804.27,367.00 803.63,367.00 C802.08,367.00 801.97,366.74 803.00,365.50 ZM 575.81 229.36 C571.34,228.07 565.31,227.44 556.71,227.18 C563.73,227.38 569.35,227.71 571.20,228.10 C572.85,228.44 574.39,228.86 575.81,229.36 ZM 631.96 505.00 C624.23,505.17 616.09,504.95 615.64,504.23 C615.90,504.65 622.63,505.00 630.59,505.00 C631.06,505.00 631.51,505.00 631.96,505.00 ZM 751.34 247.38 C750.86,243.81 750.08,240.97 748.87,238.63 C749.00,238.85 749.13,239.08 749.25,239.31 C750.55,241.74 751.11,243.45 751.34,247.38 ZM 753.26 364.00 L 752.83 364.00 L 752.67 358.84 ZM 738.88 229.75 C736.71,228.85 734.04,228.31 729.72,227.96 C733.60,228.22 735.92,228.54 737.00,228.95 C737.64,229.20 738.27,229.46 738.88,229.75 ZM 882.56 362.75 C882.66,363.09 883.32,363.34 884.77,363.53 L 882.62 363.50 L 882.32 361.25 C882.45,362.15 882.54,362.67 882.56,362.75 ZM 903.85 300.77 C904.42,292.73 905.30,279.08 906.17,264.75 C905.10,282.43 904.40,293.65 903.85,300.77 ZM 586.78 303.46 C585.95,304.53 585.03,305.48 584.00,306.35 C582.39,307.70 580.51,308.74 578.45,309.46 C581.71,308.24 584.59,306.19 586.78,303.46 ZM 558.20 306.95 C553.76,304.02 550.79,299.27 548.49,291.55 C547.99,289.87 547.26,288.50 546.59,287.71 C547.26,288.50 547.99,289.87 548.49,291.55 C550.73,299.04 553.73,303.94 558.20,306.95 ZM 744.73 296.16 C742.39,293.91 740.03,292.53 736.74,291.62 C740.24,292.57 742.66,293.99 744.73,296.16 ZM 552.11 227.08 C549.53,227.04 546.75,227.02 543.75,227.02 L 521.00 227.00 L 521.00 230.68 L 520.99 227.00 L 543.44 227.00 C546.38,227.00 549.30,227.03 552.11,227.08 ZM 521.69 363.36 C521.75,363.42 521.99,363.48 522.37,363.53 L 521.50 363.50 L 521.49 360.10 C521.55,362.15 521.62,363.29 521.69,363.36 ZM 491.70 504.36 C491.74,504.41 491.89,504.46 492.11,504.50 L 491.50 504.50 L 491.49 501.03 C491.55,503.12 491.62,504.29 491.70,504.36 ZM 796.95 448.00 L 797.00 448.00 L 797.10 456.17 ZM 867.06 504.34 C868.78,504.71 874.85,504.91 881.83,504.78 L 896.50 504.50 L 882.08 504.78 C874.78,504.92 868.39,504.72 867.06,504.34 ZM 796.94 396.00 L 797.00 396.00 L 797.09 402.93 ZM 918.52 504.83 C915.43,504.74 913.33,504.58 912.97,504.35 C913.75,504.54 915.77,504.71 918.52,504.83 ZM 920.13 363.09 C920.10,363.19 920.08,363.26 920.06,363.27 C919.95,363.40 919.09,363.51 917.67,363.60 C918.92,363.47 919.71,363.30 920.13,363.09 ZM 593.54 272.25 C593.54,274.04 593.50,275.63 593.42,276.92 C593.36,277.81 593.30,278.67 593.23,279.50 C593.40,277.15 593.50,274.72 593.54,272.25 ZM 868.56 259.86 C867.15,249.53 866.01,241.20 865.31,236.12 C866.05,241.42 867.18,249.71 868.56,259.86 ZM 902.58 311.53 C902.24,312.80 901.86,313.00 901.36,313.00 C901.84,313.00 902.25,312.51 902.58,311.53 ZM 817.39 423.00 L 820.00 423.00 L 820.00 423.07 ZM 820.32 478.00 L 823.06 478.00 L 823.06 478.06 ZM 911.59 492.74 C911.53,491.76 911.47,490.75 911.41,489.72 C911.04,482.40 910.48,476.22 910.14,475.62 C910.48,476.22 911.04,482.38 911.42,489.67 C911.47,490.72 911.53,491.75 911.59,492.74 ZM 626.73 370.32 L 626.44 368.50 L 626.50 368.50 ZM 682.02 521.43 L 682.30 523.13 C682.16,522.61 682.06,522.02 682.02,521.43 ZM 592.35 287.54 C591.98,290.09 591.53,292.34 591.00,294.33 C591.53,292.30 591.98,290.02 592.35,287.54 ZM 567.40 310.38 C566.21,310.20 565.03,309.93 563.87,309.57 C564.98,309.90 566.15,310.17 567.40,310.38 ZM 490.99 368.00 L 491.00 368.00 L 491.00 371.69 ZM 923.69 369.83 L 923.48 368.50 L 923.50 368.50 ZM 899.99 310.13 C900.00,310.29 900.00,310.40 900.00,310.48 C900.00,310.51 900.00,310.54 900.00,310.57 C900.00,310.47 899.99,310.36 899.99,310.25 C899.99,310.22 899.99,310.18 899.99,310.13 Z" fill="rgb(29,186,236)"/>
<path d="M 682.02 521.43 C682.06,522.00 682.16,522.57 682.29,523.07 C681.16,522.39 681.01,537.93 681.01,630.25 L 681.00 720.11 L 680.78 628.60 C680.62,567.32 680.84,517.40 681.25,517.65 C681.33,517.71 681.41,517.81 681.49,517.95 C681.69,519.32 681.81,520.19 681.86,520.50 ZM 682.91 524.51 C682.94,524.54 682.97,524.57 683.00,524.60 C683.14,524.74 683.27,526.70 683.39,530.42 C683.24,527.40 683.07,525.59 682.85,524.50 Z" fill="rgb(127,177,193)"/>
<path d="M 29.25 743.34 C28.25,742.94 28.00,670.11 28.00,383.92 L 28.00 25.00 L 682.50 25.00 L 1337.00 25.00 L 1336.75 384.25 L 1336.50 743.50 L 683.50 743.67 C324.35,743.77 29.94,743.62 29.25,743.34 ZM 681.01 630.25 C681.01,532.43 681.17,520.81 682.50,523.36 C683.79,525.82 684.03,540.69 684.25,632.86 L 684.50 739.50 L 1008.75 739.75 L 1333.00 740.00 L 1333.00 673.50 L 1333.00 607.00 L 1248.50 607.00 L 1164.00 607.00 L 1164.00 537.08 L 1164.00 467.17 L 1156.25 461.71 C1137.73,448.67 1124.21,429.58 1117.79,407.40 C1115.80,400.53 1115.51,397.34 1115.56,383.00 C1115.62,368.02 1115.87,365.69 1118.32,357.71 C1125.07,335.69 1138.89,317.39 1158.71,304.23 L 1164.00 300.72 L 1164.00 230.86 L 1164.00 161.00 L 1248.50 161.00 L 1333.00 161.00 L 1333.00 94.50 L 1333.00 28.00 L 1008.50 28.00 L 684.00 28.00 L 684.00 127.00 C684.00,214.33 683.82,226.00 682.50,226.00 C681.18,226.00 681.00,214.33 681.00,127.00 L 681.00 28.00 L 356.50 28.00 L 32.00 28.00 L 32.00 94.50 L 32.00 161.00 L 116.50 161.00 L 201.00 161.00 L 201.00 230.79 L 201.00 300.58 L 207.25 304.69 C245.08,329.58 260.43,377.28 243.72,418.00 C242.03,422.12 238.81,428.62 236.57,432.42 C231.39,441.23 216.96,456.45 207.95,462.60 L 201.00 467.35 L 201.00 537.18 L 201.00 607.00 L 116.50 607.00 L 32.00 607.00 L 32.00 673.50 L 32.00 740.00 L 356.50 740.00 L 681.00 740.00 L 681.01 630.25 ZM 198.00 384.00 L 198.00 165.00 L 114.99 165.00 L 31.98 165.00 L 32.24 223.25 L 32.50 281.50 L 77.25 281.76 L 122.01 282.02 L 121.75 384.26 L 121.50 486.50 L 76.75 486.76 L 32.00 487.02 L 32.00 545.01 L 32.00 603.00 L 115.00 603.00 L 198.00 603.00 L 198.00 384.00 ZM 1333.00 545.00 L 1333.00 487.00 L 1289.58 487.00 C1265.70,487.00 1245.45,486.73 1244.58,486.39 C1243.15,485.85 1243.00,475.88 1243.00,383.89 L 1243.00 282.00 L 1288.00 282.00 L 1333.00 282.00 L 1333.00 223.50 L 1333.00 165.00 L 1250.50 165.00 L 1168.00 165.00 L 1168.00 384.00 L 1168.00 603.00 L 1250.50 603.00 L 1333.00 603.00 L 1333.00 545.00 ZM 118.39 481.42 C119.19,479.35 119.19,288.65 118.39,286.58 C117.85,285.17 113.08,285.00 74.89,285.00 L 32.00 285.00 L 32.00 384.00 L 32.00 483.00 L 74.89 483.00 C113.08,483.00 117.85,482.83 118.39,481.42 ZM 1333.00 384.00 L 1333.00 285.00 L 1290.00 285.00 L 1247.00 285.00 L 1247.00 384.00 L 1247.00 483.00 L 1290.00 483.00 L 1333.00 483.00 L 1333.00 384.00 ZM 208.64 457.64 C215.48,452.56 226.31,441.44 230.68,435.00 C235.64,427.69 240.80,416.69 243.67,407.29 C246.06,399.43 246.34,396.91 246.34,383.50 C246.34,370.03 246.07,367.59 243.62,359.56 C240.00,347.67 233.35,335.13 225.94,326.20 C219.93,318.98 204.74,306.00 202.28,306.00 C201.25,306.00 201.00,321.40 201.00,384.00 C201.00,428.91 201.38,462.00 201.89,462.00 C202.38,462.00 205.42,460.04 208.64,457.64 ZM 1164.00 384.00 C1164.00,339.09 1163.62,306.00 1163.11,306.00 C1161.48,306.00 1149.56,315.29 1144.32,320.65 C1133.23,331.99 1124.91,346.56 1120.83,361.80 C1118.12,371.92 1117.87,393.21 1120.34,403.33 C1125.52,424.52 1138.82,444.32 1157.00,457.89 C1160.03,460.14 1162.84,461.99 1163.25,462.00 C1163.66,462.00 1164.00,426.90 1164.00,384.00 ZM 491.70 504.36 C491.31,503.98 491.00,473.14 491.00,435.83 L 491.00 368.00 L 508.44 368.00 L 525.88 368.00 L 526.50 372.25 C526.85,374.59 529.26,391.99 531.86,410.93 C535.21,435.29 536.98,445.49 537.92,445.81 C539.01,446.17 539.13,439.88 538.57,409.87 C538.20,389.87 537.66,372.26 537.37,370.75 L 536.84 368.00 L 550.43 368.00 L 564.01 368.00 L 563.76 436.25 L 563.50 504.50 L 546.50 504.50 L 529.50 504.50 L 527.41 489.50 C526.26,481.25 523.83,463.57 522.01,450.22 C519.83,434.20 518.33,426.06 517.60,426.30 C516.34,426.72 516.27,432.93 517.00,475.50 L 517.50 504.50 L 504.95 504.78 C498.04,504.93 492.08,504.74 491.70,504.36 ZM 569.52 503.78 C569.28,503.07 573.46,472.35 578.80,435.50 L 588.52 368.50 L 607.48 368.50 L 626.44 368.50 L 627.66 376.00 C632.33,404.50 646.11,502.26 645.64,503.49 C645.16,504.74 642.58,505.00 630.59,505.00 C622.63,505.00 615.90,504.65 615.64,504.23 C615.38,503.80 614.84,497.05 614.44,489.23 L 613.72 475.00 L 609.36 474.83 C606.96,474.74 604.21,474.63 603.25,474.58 C601.70,474.51 601.39,476.21 600.50,489.50 L 599.50 504.50 L 584.73 504.78 C573.44,504.99 569.85,504.75 569.52,503.78 ZM 611.28 449.25 C611.49,448.84 611.10,440.40 610.41,430.50 C609.71,420.60 609.11,411.26 609.07,409.75 C609.03,408.01 608.45,407.00 607.50,407.00 C606.55,407.00 605.97,408.01 605.93,409.75 C605.89,411.26 605.29,420.60 604.59,430.50 C603.90,440.40 603.51,448.84 603.72,449.25 C603.94,449.66 605.64,450.00 607.50,450.00 C609.36,450.00 611.06,449.66 611.28,449.25 ZM 705.47 503.95 C704.84,502.93 687.00,373.35 687.00,369.79 C687.00,368.15 688.24,368.00 702.00,368.00 C710.25,368.00 717.01,368.34 717.03,368.75 C717.63,385.58 723.03,453.43 723.83,454.23 C724.64,455.04 725.05,454.95 725.38,453.92 C725.62,453.14 727.00,433.63 728.43,410.56 C729.87,387.49 731.20,368.47 731.38,368.28 C731.57,368.10 738.43,368.07 746.62,368.22 L 761.53 368.50 L 752.31 436.00 C747.24,473.12 743.08,503.84 743.05,504.25 C742.97,505.45 706.22,505.16 705.47,503.95 ZM 767.00 436.52 L 767.00 368.00 L 795.00 368.00 L 823.00 368.00 L 823.00 381.38 L 823.00 394.75 L 819.88 395.38 C818.16,395.72 812.29,396.00 806.85,396.00 L 796.94 396.00 L 797.22 409.25 L 797.50 422.50 L 808.75 422.78 L 820.00 423.07 L 820.00 435.53 L 820.00 448.00 L 808.47 448.00 L 796.95 448.00 L 797.22 462.75 L 797.50 477.50 L 810.28 477.78 L 823.06 478.06 L 822.78 491.28 L 822.50 504.50 L 794.75 504.77 L 767.00 505.03 L 767.00 436.52 ZM 830.69 504.36 C830.31,503.98 830.00,473.14 830.00,435.83 L 830.00 368.00 L 845.51 368.00 L 861.01 368.00 L 860.76 436.25 L 860.50 504.50 L 845.94 504.78 C837.94,504.93 831.07,504.74 830.69,504.36 ZM 866.59 504.15 C866.28,503.65 870.41,472.81 875.77,435.60 L 885.50 367.96 L 904.49 368.23 L 923.48 368.50 L 924.64 376.00 C931.18,418.30 943.03,502.49 942.60,503.59 C942.17,504.71 939.12,505.00 927.59,505.00 C919.63,505.00 912.90,504.64 912.62,504.20 C912.35,503.76 911.81,497.22 911.42,489.67 C911.03,482.12 910.43,475.77 910.10,475.57 C909.77,475.38 907.03,475.05 904.00,474.86 L 898.50 474.50 L 897.50 489.50 L 896.50 504.50 L 881.83 504.78 C873.75,504.93 866.90,504.65 866.59,504.15 ZM 908.11 449.56 C908.35,449.32 908.00,441.11 907.35,431.31 C906.69,421.52 906.11,412.04 906.07,410.25 C905.99,406.47 903.04,405.53 902.94,409.25 C902.90,410.49 902.29,419.83 901.58,430.00 C900.87,440.17 900.47,448.84 900.70,449.25 C901.14,450.04 907.36,450.31 908.11,449.56 ZM 469.72 364.94 C457.71,363.12 448.98,357.04 444.97,347.72 C442.12,341.07 440.52,326.67 441.44,315.75 L 442.18 307.00 L 456.47 307.00 L 470.76 307.00 L 470.29 317.75 C469.71,330.76 471.03,335.94 475.30,337.44 C480.98,339.43 483.96,334.90 483.99,324.22 C484.01,311.79 481.25,307.62 466.50,297.76 C449.61,286.48 443.98,279.21 441.94,266.07 C440.64,257.69 441.95,246.97 445.01,240.97 C449.96,231.28 459.50,226.14 474.22,225.25 C489.51,224.33 499.84,227.49 506.34,235.08 C511.82,241.49 513.20,246.56 513.75,262.28 L 514.23 276.06 L 499.86 275.78 L 485.50 275.50 L 484.96 266.50 C484.41,257.25 483.26,253.70 480.45,252.62 C475.20,250.60 471.00,253.90 471.00,260.03 C471.00,268.53 474.51,272.73 491.68,284.82 C508.66,296.78 512.90,303.90 513.77,321.88 C515.15,350.50 505.56,363.43 481.50,365.35 C478.20,365.61 472.90,365.43 469.72,364.94 ZM 625.53 364.89 C618.03,363.79 610.02,359.93 606.17,355.54 C604.54,353.68 602.15,349.54 600.85,346.33 C598.50,340.51 598.50,340.43 598.50,295.50 C598.50,254.69 598.67,250.02 600.31,245.32 C603.27,236.82 607.26,232.24 614.82,228.67 C621.20,225.66 622.06,225.52 634.00,225.51 C643.68,225.50 647.72,225.93 651.91,227.38 C658.97,229.84 665.01,235.89 668.12,243.59 L 670.50 249.50 L 670.50 295.00 L 670.50 340.50 L 668.13 346.38 C663.61,357.60 656.15,362.98 642.33,364.97 C634.59,366.09 633.78,366.09 625.53,364.89 ZM 638.60 335.90 C640.40,333.90 640.50,331.74 640.50,295.00 C640.50,258.26 640.40,256.10 638.60,254.10 C637.55,252.95 635.70,252.00 634.50,252.00 C633.30,252.00 631.45,252.95 630.40,254.10 C628.60,256.10 628.50,258.26 628.50,295.00 C628.50,331.74 628.60,333.90 630.40,335.90 C631.45,337.05 633.30,338.00 634.50,338.00 C635.70,338.00 637.55,337.05 638.60,335.90 ZM 380.00 295.52 L 380.00 227.00 L 408.00 227.00 L 436.00 227.00 L 436.00 240.50 L 436.00 254.00 L 422.97 254.00 L 409.94 254.00 L 410.22 267.75 L 410.50 281.50 L 421.75 281.78 L 433.00 282.07 L 433.00 294.03 L 433.00 306.00 L 421.50 306.00 L 410.00 306.00 L 410.00 321.00 L 410.00 336.00 L 423.03 336.00 L 436.06 336.00 L 435.78 349.75 L 435.50 363.50 L 407.75 363.77 L 380.00 364.03 L 380.00 295.52 ZM 521.69 363.36 C521.31,362.98 521.00,332.14 521.00,294.83 L 521.00 227.00 L 543.75 227.02 C576.65,227.04 582.93,229.01 588.92,241.21 C591.39,246.24 592.21,249.58 593.00,257.92 C594.55,274.30 592.79,292.52 588.93,300.12 C585.08,307.70 576.83,311.80 568.08,310.49 C557.63,308.92 552.08,303.56 548.49,291.55 C547.34,287.71 545.00,285.46 545.00,288.19 C545.00,288.94 546.34,295.02 547.97,301.70 C550.83,313.43 550.94,314.73 551.04,338.68 L 551.14 363.50 L 536.76 363.78 C528.85,363.93 522.07,363.74 521.69,363.36 ZM 563.64 279.31 C564.75,276.67 565.09,273.15 564.84,266.91 C564.41,255.94 563.04,254.00 555.72,254.00 L 550.75 254.00 L 551.18 265.87 C551.68,280.07 552.95,283.00 558.57,283.00 C561.70,283.00 562.28,282.57 563.64,279.31 ZM 679.00 295.42 L 679.00 226.83 L 706.25 227.23 C735.04,227.65 737.44,228.00 743.76,232.70 C749.14,236.69 751.31,242.14 751.81,252.93 C752.74,272.63 748.75,281.82 737.77,285.28 C734.77,286.23 730.23,287.00 727.66,287.00 C724.39,287.00 723.00,287.41 723.00,288.36 C723.00,289.31 725.03,289.93 729.63,290.40 C737.86,291.25 741.60,292.81 745.69,297.13 C750.44,302.15 751.13,305.03 751.59,322.00 C751.83,330.52 752.20,343.46 752.43,350.75 L 752.83 364.00 L 737.98 364.00 C727.18,364.00 722.90,363.66 722.32,362.75 C721.88,362.06 721.29,349.72 721.01,335.32 C720.53,310.73 720.37,308.97 718.40,306.32 C716.89,304.29 715.28,303.41 712.65,303.19 L 709.00 302.88 L 709.00 333.44 L 709.00 364.00 L 694.00 364.00 L 679.00 364.00 L 679.00 295.42 ZM 722.41 272.75 C725.79,267.52 725.57,259.57 721.94,255.94 C720.49,254.49 718.61,254.00 714.50,254.00 L 709.00 254.00 L 709.00 264.50 L 709.00 275.00 L 714.98 275.00 C720.08,275.00 721.17,274.67 722.41,272.75 ZM 775.00 309.00 L 775.00 254.00 L 765.50 254.00 L 756.00 254.00 L 756.00 240.50 L 756.00 227.00 L 790.00 227.00 L 824.00 227.00 L 824.00 240.50 L 824.00 254.00 L 814.50 254.00 L 805.00 254.00 L 805.00 309.00 L 805.00 364.00 L 790.00 364.00 L 775.00 364.00 L 775.00 309.00 ZM 829.67 363.33 C829.30,362.97 829.00,332.14 829.00,294.83 L 829.00 227.00 L 844.00 227.00 L 859.00 227.00 L 859.00 295.50 L 859.00 364.00 L 844.67 364.00 C836.78,364.00 830.03,363.70 829.67,363.33 ZM 882.56 362.75 C882.35,362.06 878.30,332.48 873.56,297.00 C868.81,261.52 864.69,231.26 864.39,229.75 L 863.84 227.00 L 879.42 227.00 L 895.00 227.00 L 895.01 230.25 C895.02,232.04 896.14,250.15 897.50,270.50 C898.87,290.85 899.99,308.74 899.99,310.25 C900.00,311.90 900.54,313.00 901.36,313.00 C903.14,313.00 903.40,310.44 906.17,264.75 L 908.46 227.00 L 923.82 227.00 L 939.18 227.00 L 938.58 230.75 C938.26,232.81 934.15,263.08 929.45,298.00 C924.76,332.92 920.72,362.06 920.49,362.75 C920.17,363.69 915.46,364.00 901.50,364.00 C887.52,364.00 882.84,363.69 882.56,362.75 ZM 930.00 361.73 C930.00,360.48 934.28,329.86 939.50,293.68 C944.72,257.51 949.00,227.71 949.00,227.46 C949.00,227.21 957.48,227.00 967.84,227.00 L 986.68 227.00 L 987.88 232.25 C990.29,242.78 1007.01,362.39 1006.19,363.21 C1005.72,363.68 998.85,363.93 990.92,363.78 L 976.50 363.50 L 975.76 357.00 C975.35,353.42 974.75,346.56 974.42,341.75 L 973.82 333.00 L 968.04 333.00 L 962.26 333.00 L 961.61 341.25 C961.26,345.79 960.70,352.76 960.37,356.75 L 959.77 364.00 L 944.88 364.00 C930.07,364.00 930.00,363.99 930.00,361.73 ZM 971.50 308.00 C971.84,307.46 971.56,297.78 970.88,286.50 C969.94,270.94 969.33,266.00 968.34,266.00 C967.63,266.00 966.83,267.01 966.58,268.25 C965.72,272.45 963.93,307.08 964.53,308.04 C965.31,309.31 970.71,309.28 971.50,308.00 Z" fill="rgb(252,253,253)"/>
</g>
</svg>
